<svg height="1050" viewBox="0 0 1673 1050" width="1673" xmlns="http://www.w3.org/2000/svg" xmlns:xlink="http://www.w3.org/1999/xlink"><linearGradient id="a" x1="125.197256%" x2="-76.216238%" y1="41.690133%" y2="64.827665%"><stop offset="0" stop-color="#fff"/><stop offset="1" stop-color="#9dceff" stop-opacity=".7"/></linearGradient><linearGradient id="b"><stop offset="0" stop-color="#009eff"/><stop offset=".054977" stop-color="#0396f1"/><stop offset=".2942" stop-color="#0f74ba"/><stop offset=".5165" stop-color="#195a8f"/><stop offset=".7153" stop-color="#204770"/><stop offset=".8832" stop-color="#243b5d"/><stop offset="1" stop-color="#263756"/></linearGradient><linearGradient id="c" x1="0%" x2="100%" xlink:href="#b" y1="49.999988%" y2="49.999988%"/><linearGradient id="d" x1="36.809644%" x2="62.792384%" y1="94.466029%" y2="6.885448%"><stop offset=".114" stop-color="#fff"/><stop offset=".8602" stop-color="#9dceff"/></linearGradient><linearGradient id="e" x1="0%" x2="99.999635%" xlink:href="#b" y1="50.000004%" y2="50.000004%"/><linearGradient id="f" x1="-.000213%" x2="100.000408%" xlink:href="#b" y1="50.000192%" y2="50.000192%"/><linearGradient id="g" x1="-.000014%" x2="100.000034%" xlink:href="#b" y1="49.999966%" y2="49.999966%"/><linearGradient id="h" x1="176.236831%" x2="-16.194234%" y1="118.515481%" y2="14.177329%"><stop offset=".114" stop-color="#fff"/><stop offset=".8619" stop-color="#6fb7ff"/></linearGradient><linearGradient id="i" x1="7.951812%" x2="114.136325%" xlink:href="#b" y1="70.80265%" y2="18.055022%"/><g fill="none"><path d="m4.13451015 925.654008c33.07608125 103.523212 229.02232985 24.810127 433.38526085 24.810127 147.808737 0 319.390909 90.822785 440.325331 97.616035 262.984378 14.76793 424.525598-108.691984 434.123568-190.063292 12.10821-102.637131-132.00901-150.485232-120.78676-256.223629 11.81288-112.383966 481.81809-70.886076 481.81809-215.759494 0-127.151898-739.19135-66.160337-739.19135-66.160337s-696.074316 39.873417-802.833275 218.417721c-36.3246248 60.548523 61.279347 125.675106 28.79391 184.746836-32.042454 57.447257-186.3482788 106.181434-155.63477485 202.616033z" fill="url(#a)"/><path d="m629.626831 733.227848v-705.9071729c0-4.5780591 1.181289-9.0084388 3.691527-12.9957806 6.644749-12.10970463 21.85384-16.54008437 33.962048-9.89451475.295322.14767932.442983.29535865.738305.44303797l229.612975 132.91139228c33.076081 19.050633 53.45331 54.345992 53.45331 92.447258v684.198312c-.147661 4.578059-1.32895 9.008439-3.543866 12.99578-6.79241 12.109705-22.001501 16.392405-34.109709 9.746836-.147661-.14768-.295322-.14768-.442983-.295359l-248.365931-143.691983c-21.85384-12.257384-34.995676-35.147679-34.995676-59.957806z" fill="url(#c)"/><path d="m562.884025 769.409283v-705.9071733c0-4.5780591 1.181288-9.0084388 3.543866-12.9957806 6.644748-12.1097046 21.853839-16.5400844 33.962047-9.8945148.295322.1476794.590645.2953587.738306.443038l229.612974 132.9113927c33.076081 19.050633 53.45331 54.345991 53.45331 92.447257v684.198312c-.147661 4.578059-1.32895 9.008439-3.543866 12.995781-6.79241 12.109705-22.0015 16.392405-34.109709 9.599156-.147661-.147679-.295322-.147679-.442983-.295359l-248.365931-143.691983c-21.706178-12.257384-34.848014-35-34.848014-59.810126z" fill="url(#d)" opacity=".9"/><g fill="#9dceff" transform="translate(633.466019 751.687764)"><path d="m71.6156222 45.3375527c1.1812887 0 2.2149162-.8860759 2.2149162-2.2151898 0-.7383967-.4429832-1.4767933-1.0336275-1.9198313l-69.25304506-39.72573835c-1.03362753-.5907173-2.36257723-.29535865-2.95322153.73839662-.59064431 1.03375528-.29532216 2.3628692.73830538 2.9535865l69.10538391 39.72573843c.4429833.2953586.7383054.4430379 1.1812886.4430379z"/><path d="m71.6156222 64.978903c1.1812887 0 2.2149162-.886076 2.2149162-2.2151899 0-.7383966-.4429832-1.4767933-1.0336275-1.9198312l-69.10538398-39.7257384c-1.03362754-.5907173-2.36257723-.2953587-2.95322154.7383966-.5906443 1.0337553-.29532215 2.3628692.73830539 2.9535865l69.10538393 39.7257384c.2953222.2953586.5906443.443038 1.0336275.443038z"/><path d="m71.6156222 85.5063291c1.1812887 0 2.2149162-1.0337553 2.2149162-2.2151899 0-.7383966-.4429832-1.4767932-1.0336275-1.9198312l-69.10538398-39.7257384c-1.03362754-.5907173-2.36257723-.2953586-2.95322154.7383966-.5906443 1.0337553-.29532215 2.3628692.73830539 2.9535865l69.10538393 39.7257384c.2953222.2953587.5906443.443038 1.0336275.443038z"/><path d="m161.984201 136.012658c1.181289 0 2.214916-.886076 2.214916-2.21519 0-.738396-.442983-1.476793-1.033627-1.919831l-69.1053841-39.7257383c-1.0336275-.5907173-2.3625772-.2953586-2.9532215.7383967-.5906443 1.0337552-.2953222 2.3628692.7383054 2.9535865l69.1053842 39.8734181c.295322.295358.590644.443038 1.033627.295358z"/><path d="m160.50759 115.92827c1.181289 0 2.214917-.886076 2.214917-2.21519 0-.738396-.442984-1.476793-1.033628-1.919831l-69.1053839-39.7257385c-1.0336275-.5907173-2.3625772-.2953586-2.9532215.7383967-.5906443 1.0337552-.2953221 2.3628692.7383054 2.9535865l69.253045 39.7257383c.147661.295359.442983.443038.885966.443038z"/></g><g fill="#3f9fff" transform="translate(726.492498 453.375527)"><path d="m112.813063 68.3755274c1.624272 0 2.953221-1.1814346 2.953221-2.8059071 0-1.0337553-.590644-2.0675106-1.476611-2.5105486l-108.38322993-62.32067508c-1.62427184-.44303797-3.24854369.29535865-3.69152692 1.91983123-.29532215 1.03375527 0 2.3628692.88596646 3.10126582l108.38323039 62.32067513c.295322.1476793.885966.2953586 1.32895.2953586z"/><path d="m112.813063 99.3881857c1.624272 0 2.953221-1.1814346 2.953221-2.8059072 0-1.0337553-.590644-2.0675106-1.476611-2.5105485l-108.38322993-62.3206751c-1.18128861-1.0337553-3.10088261-1.0337553-4.13451015.1476793s-1.03362754 3.1012658.14766108 4.1350211c.29532215.2953586.73830538.5907173 1.18128861.5907173l108.38323039 62.1729958c.442983.4430379.885966.5907173 1.32895.5907173z"/><path d="m112.813063 130.400844c1.624272 0 2.953221-1.181435 2.953221-2.805907 0-1.033756-.590644-2.067511-1.476611-2.510549l-108.38322993-62.4683542c-1.18128861-1.0337553-3.10088261-1.0337553-4.13451015.1476793s-1.03362754 3.1012658.14766108 4.1350211c.29532215.2953586.73830538.5907173 1.18128861.5907173l108.38323039 62.3206755c.442983.443038.885966.590717 1.32895.590717z"/><path d="m112.813063 162.004219c1.624272-.147679 2.80556-1.476793 2.80556-3.101265 0-.886076-.590644-1.772152-1.32895-2.21519l-108.38322993-62.3206754c-1.62427184-.443038-3.24854369.2953587-3.69152692 1.9198312-.29532215 1.0337553 0 2.3628692.88596646 3.1012659l108.38323039 62.3206753c.295322.147679.885966.295358 1.32895.295358z"/></g><g fill="#1266c7"><path d="m707.59188 507.42616c.738305 0 1.476611-.443038 1.771933-1.033755.590644-1.033755.295322-2.362869-.738305-2.953586l-23.478112-14.029536c-1.033627-.590718-2.362577-.14768-2.953221.886076-.442983 1.033755-.147661 2.21519.738305 2.805907l23.478111 14.029536c.442984.147679.738306.295358 1.181289.295358z"/><path d="m707.59188 538.291139c.738305 0 1.476611-.443038 1.771933-1.033755.590644-1.033755.295322-2.362869-.738305-2.953587l-23.478112-14.029535c-1.033627-.590718-2.362577-.295359-2.953221.738396-.590645 1.033756-.295322 2.362869.738305 2.953587l23.478111 14.029536c.442984.295358.738306.295358 1.181289.295358z"/><path d="m707.59188 569.303797c1.181289 0 2.214916-.886075 2.214916-2.06751 0-.738397-.442983-1.476793-1.033627-1.919831l-23.478112-14.029536c-1.033627-.590717-2.362577-.295359-2.953221.738396-.590644 1.033756-.295322 2.36287.738305 2.953587l23.478111 14.029536c.295323.147679.590645.295358 1.033628.295358z"/><path d="m707.59188 601.054852c1.181289 0 2.214916-1.033755 2.214916-2.21519 0-.738396-.442983-1.476793-1.033627-1.772151l-23.478112-14.029536c-1.033627-.590718-2.362577-.295359-2.953221.738396-.590644 1.033756-.295322 2.36287.738305 2.953587l23.478111 14.029536c.295323.147679.590645.295358 1.033628.295358z"/></g><path d="m595.812445 619.219409c.295322 5.464135 3.100882 10.337553 7.678376 13.438819 4.282171 2.362869 7.530715.443038 7.530715-4.578059-.295322-5.464135-3.100883-10.337553-7.678376-13.438819-4.13451-2.510548-7.530715-.443038-7.530715 4.578059zm2.214916 1.181435c0-3.544304 2.362577-5.021097 5.46346-3.248945 3.248544 2.21519 5.168138 5.759493 5.46346 9.599156 0 3.544304-2.362578 5.021097-5.46346 3.248945-3.248544-2.067511-5.315799-5.611814-5.46346-9.599156z" fill="#e0f0ff"/><path d="m636.123919 641.223629c-.738306-4.873418-3.543866-9.303798-7.678376-11.962026-4.13451-2.362869-7.530715-.443038-7.530715 4.43038 0 1.033755.147661 2.067511.442983 3.101266l-13.880141 8.270042c-1.033628-1.476793-2.362577-2.658228-3.839188-3.544304-4.13451-2.362869-7.530715-.295358-7.530715 4.578059.295322 5.021097 2.657899 9.599157 6.497087 12.552743v.147679 11.666667c-3.248543-1.329114-5.906443.295359-6.349426 3.987342-.738305 5.168776 3.100883 12.552742 8.26902 14.915612 2.953222 1.329114 5.46346.443038 6.497088-2.21519 1.624272-4.578059-1.476611-11.814346-6.054104-15.35865v-11.666667-.147679c1.328949.590717 2.80556.738397 4.13451 0 3.100882-1.624473 3.248543-7.088608.295322-12.405063l13.289497-7.974684c1.181288 2.658228 2.953221 4.873418 5.168137 6.64557 4.134511 3.101266 7.973699 1.919831 8.564343-2.658228l.147661.147679m-13.437158-8.71308c0-3.544304 2.362577-5.021097 5.46346-3.248945 3.248544 2.06751 5.168138 5.611814 5.46346 9.451477 0 3.544303-2.362578 5.021097-5.46346 3.248945-3.248544-2.067511-5.315799-5.611815-5.46346-9.451477zm-19.491262 38.544304c3.248544 2.06751 5.315799 5.611814 5.46346 9.451477 0 3.544303-2.362577 5.021097-5.46346 3.248945-3.248544-2.067511-5.315799-5.611815-5.46346-9.451477 0-3.544304 2.362577-5.021097 5.46346-3.248945zm-5.611121-26.139241c0-3.544303 2.362577-5.021097 5.46346-3.248945 3.248544 2.067511 5.168138 5.611815 5.46346 9.599156 0 3.544304-2.362578 5.021097-5.46346 3.248945-3.248544-2.215189-5.315799-5.759493-5.46346-9.599156z" fill="url(#e)"/><path d="m647.346161 699.556962c-1.771933 1.624473-2.067255 5.316456-.590645 9.451477 1.033628 2.658228 2.6579 5.168776 4.872816 6.940928 5.46346 4.43038 10.336275 1.624473 9.154987-5.464135-.590645-2.805907-1.771933-5.464135-3.691527-7.827004-2.805561-3.396625-6.054104-4.873418-8.269021-4.135021m10.040954 12.848101c0 3.544304-2.362578 4.873418-5.46346 3.248945-3.248544-2.06751-5.315799-5.611814-5.46346-9.451477 0-3.544303 2.362577-5.021097 5.46346-3.248945 3.248543 2.067511 5.315799 5.611815 5.46346 9.451477z" fill="url(#f)"/><path d="m849.789497 708.122363c.147661 21.561181-10.040953 33.670886-22.444484 27.025316l-71.910944-38.396624c-12.551192-6.64557-22.592145-31.308017-22.444484-54.936709s10.336276-36.772152 22.739806-29.240506l71.467961 42.974683c12.403531 7.383966 22.592145 30.864979 22.592145 52.57384z" fill="#9dceff"/><path d="m831.331862 717.721519c.147661 21.561181-10.040953 33.670886-22.444483 27.025316l-71.910945-38.396624c-12.551191-6.64557-22.592145-31.308017-22.444483-54.936709.147661-23.628692 10.336275-36.772152 22.739805-29.240506l71.467962 42.974683c12.255869 7.383967 22.444483 31.012659 22.592144 52.57384z" fill="url(#g)"/><path d="m721.915004 656.877637c-.147661 19.936709 10.040954 41.49789 22.592145 48.291139 12.551192 6.793249 22.739806-3.248945 22.887467-22.447257s-10.040953-40.759494-22.592145-48.291139c-12.551191-7.531646-22.739806 2.510548-22.887467 22.447257z" fill="#fff"/><path d="m675.697087 324.008439c0 7.679325-6.054104 11.223629-13.437158 7.974683l-150.171315-87.278481c-7.383054-3.248945-13.73248-12.848101-13.880141-21.265822l-.147661-68.966245c-.295322-8.417722 5.758782-12.257384 13.289497-9.451477l150.90962 85.801688c7.530715 4.43038 13.732481 13.586498 13.732481 21.413502z" fill="#293754"/><path d="m656.944131 330.063291c0 7.679325-6.054105 11.223629-13.437158 7.974684l-150.318977-81.962026c-7.383053-3.248945-13.73248-12.848101-13.880141-21.265822l-.147661-74.282701c-.295322-8.417721 5.758782-12.257384 13.289497-8.71308l150.909621 85.801688c7.530714 3.691983 13.73248 12.848101 13.73248 20.527426z" fill="url(#h)"/><path d="m595.812445 251.054852 4.282171 2.067511v-4.43038c0-.590717.442983-.886076 1.033628-.590717.590644.295358 1.033627.886076 1.033627 1.624472v4.43038l4.282171 2.067511c.590645.295358 1.033628.886076 1.033628 1.624472 0 .590718-.442983.886076-1.033628.590718l-4.282171-2.067511v4.43038c0 .590717-.442983.886076-1.033627.590717-.590645-.295359-1.033628-.886076-1.033628-1.624473v-4.430379l-4.282171-2.067511c-.590644-.295358-1.033628-.886076-1.033628-1.624472 0-.590718.442984-.886076 1.033628-.590718z" fill="#3f9fff"/><path d="m560.226125 273.35443c-1.624272 1.033756-1.47661 3.691984.147661 6.202532 1.624272 2.510549 4.134511 3.544304 5.758782 2.658228l15.947397-9.894515c1.328949-.738397 1.47661-2.805907.590644-4.873418l4.577493-2.805907c8.269021 11.518988 20.672551 17.278481 28.79391 13.291139 8.712004-4.2827 9.302648-18.016877 1.32895-30.864978-7.973698-12.848102-21.706178-20.084389-30.418182-15.949368-8.712003 4.135022-9.302648 18.312237-1.181288 31.308017l-4.577494 2.805908c-1.624272-1.624473-3.691527-2.36287-4.872815-1.624473zm41.197441 1.476794c-10.631598-4.873418-19.343601-17.869199-19.343601-29.092827 0-11.223629 8.416681-16.244726 19.048279-11.223629 10.631597 5.021097 19.343601 18.016878 19.343601 29.092827s-8.564343 16.097046-19.048279 11.223629zm-39.72083 3.839662c-.738305-1.181435-.738305-2.510548 0-2.953586l15.947396-9.894515h.147661c.738306-.443038 2.067256.147679 2.805561 1.329114.738305 1.181434.738305 2.510548 0 2.805907l-15.947396 9.894515c-.885967.443038-2.067255 0-2.953222-1.181435z" fill="#3f9fff"/><path d="m854.809974 413.797468 121.968049 71.033756c10.040953 5.907173 23.035128 2.510548 28.941567-7.531646 1.9196-3.248945 2.80556-6.940928 2.95323-10.632911l.59064-106.772152c.29532-22.742616-11.812886-44.008439-31.599471-55.379747l-121.672727-70.886076c-10.040953-5.907173-23.035128-2.510549-28.941571 7.531646-1.771933 3.248945-2.80556 6.940928-2.953221 10.632911l-.591996 106.772152c-.14631 22.594937 11.814237 43.71308 31.3055 55.232067z" fill="#293754"/><path d="m944.587908 475.822785 22.444484 13.291139c11.960547 4.2827 24.807061.738397 30.565843-9.451477 1.919594-3.248945 2.805565-6.940928 2.953225-10.632911l.14766-106.919831c.29532-22.742616-11.812889-44.008439-31.451812-55.379747l-120.196116-70.14768c-9.893293-5.759493-22.592145-2.510548-28.498588 7.383967 0 .147679-.147661.147679-.147661.295358-1.771933 3.248946-2.805561 6.940929-2.953222 10.632912l-.147661 106.919831c0 22.742616 11.960547 43.71308 31.451809 55.232068l54.634599 33.670886" fill="url(#i)"/><path d="m875.334863 387.362869c-.295322-.295358-.590644-.590717-.738305-1.033755l-21.410856-36.624473c-1.476611-2.953586-.442984-6.49789 2.510238-8.122363 2.80556-1.476793 6.201765-.590717 7.826037 2.067511l18.605296 31.898734 81.065931-38.839662c2.953221-1.476793 6.497087-.14768 7.973698 2.805907 1.476611 2.953586.147661 6.49789-2.80556 7.974683l-86.086408 41.202532c-2.362577 1.181435-5.315799.738397-6.940071-1.329114z" fill="#ff9173"/><ellipse cx="567.893722" cy="455.293143" fill="#293754" rx="63.051841" ry="109.719935" transform="matrix(.86601905 -.500011 .500011 .86601905 -151.564641 344.953717)"/><ellipse cx="560.511111" cy="458.246435" fill="#6fb7ff" rx="63.051841" ry="109.719935" transform="matrix(.86601905 -.500011 .500011 .86601905 -154.030449 341.658016)"/><path d="m543.245102 405.527426v88.164557l26.431332 16.097047v-89.641351z" fill="#eef6ff"/><path d="m518.29038 420.295359v29.388185l76.340776 44.008439v-29.388186z" fill="#eef6ff"/></g></svg>